<svg id="Layer_1" data-name="Layer 1"
 xmlns="http://www.w3.org/2000/svg" 
 width="120" height="120"
 viewBox="0 0 280 300"><defs><style>.cls-1{fill:#0080c6;}.cls-1,.cls-2{fill-rule:evenodd;}.cls-2{fill:#f47721;}</style></defs><title>isro logo</title><path class="cls-1" d="M152.85,159.15a2.92,2.92,0,1,1-2.92,2.92,2.92,2.92,0,0,1,2.92-2.92Z"/><path class="cls-2" d="M98.83,163c.6-.45,6.86-8.29,8.06-9.64l24.32-29.13,8.51,71.69c.62,4.29.93,8.68,1.56,13,.15,1.07.24,2.1.36,3.23.05.48.14,1.11.22,1.63.54,3.78.83,7.63,1.34,11.39.09.62.14,1,.22,1.63a6.85,6.85,0,0,0,.2,1.42l.08.15.12-156.8a2.13,2.13,0,0,1-.33.71c-.13.28-.19.43-.33.72L98.83,163Z"/><path class="cls-2" d="M90.85,169.85h8.9v5.78c0,1.93-4.31,4-6.82,4.17,0-.77.23-1.21.23-2.08,0-2.58-.08-4.28-1.48-6.62-.29-.49-.54-.81-.83-1.25Zm25.09-8.8c1.7-.14,3.27-.51,4.9.31a7.55,7.55,0,0,1,3.43,4.9H58.35v3.24c0,.27.08.35.34.35H74.31v1.73c-1,0-2.23-.58-3.94-.58-3.23,0-6.63,1.37-8.34,3.69-.16.22-.29.48-.45.71-1.65,2.47-1.2,6,.35,8.33,6.13-3.24,17.71.3,12.5,4.06a4.73,4.73,0,0,1-7.29-4.17c-.77.51-1.49,1-2.27,1.55a17.07,17.07,0,0,0-2.24,1.57A7.64,7.64,0,0,0,64.74,189c1.55,1.27,3.23,1.28,3.65,1.9.17.24.29.46.46.71a35.53,35.53,0,0,1,2.68,4.14h5.21c-.18-.65-3.38-4.44-3.82-5.09,2.73-.23,7.52-2.37,7.52-5.67a5.75,5.75,0,0,0-2.25-4.23,10.94,10.94,0,0,0-2.59-1.7c-3.89-1.81-8.07-1.4-12-.05-.36.12-.53.23-.85.31A4.81,4.81,0,0,1,65,175.8c3.53-2.57,10.28-1.11,13.58,1.13.35.24.51.56.94.67v-7.75l9.61.12-.7.34a20.21,20.21,0,0,1-3,1.39,6.73,6.73,0,0,0,1,1.5c1.1,1.55,3,5.47,1.64,7.43a1.4,1.4,0,0,1-1.29.67c-.33,0-.36-.19-.52-.4l-2.1-2.77a6.45,6.45,0,0,0-.85-1.11,10.32,10.32,0,0,0-2,1.74l1.74,2.77c.6.9,1.16,1.82,1.75,2.76l2.2,3.47c.17.26.3.43.46.7.33.51.59.93.91,1.41h5c-.16-.61-.85-1.17-1.25-1.65-1.3-1.6-2.69-3.12-3.84-4.83a11.84,11.84,0,0,0,2.2-.58,4,4,0,0,0,1.5-1.28,8.29,8.29,0,0,0,6.89.07,7.24,7.24,0,0,1,.86-.41v8.68h5.32v-20h10.76l-3.93,1.85c.07.29,2,2.72,2.62,4.67.84,2.6,1,3.93-1.35,5-.64-.95-3-3.53-3.24-4.4a6.13,6.13,0,0,0-2.08,1.74,6.87,6.87,0,0,0,.8,1.39l6.14,9.72h5.09a4.19,4.19,0,0,0-.58-.81l-1.9-2.38a25.06,25.06,0,0,1-2.5-3.29,6.76,6.76,0,0,0,2.06-.6,3.89,3.89,0,0,0,1.46-1.2c1.68-2.23,1.45-6.38.48-8.92a12.07,12.07,0,0,0-1.57-2.82h5.9v20h5.32v-20h2.66v-3.59h-3.47c-.38,0-.36-.27-.46-.59-1.31-4.12-2.91-8.78-8.33-8.78-.68,0-1.35-.07-1.61.58a20,20,0,0,0-1.4,3.58Z"/><path class="cls-1" d="M147.63,169.85l19.14.16-1.48.5a12.27,12.27,0,0,0-4.73,3.24,11,11,0,0,0-2.09,3.23,27.16,27.16,0,0,0-1.17,2.77c-.18.43-.44.71-.05.84l3.8,0a49.7,49.7,0,0,1,6.12.58,10.25,10.25,0,0,1,3.59,1.73,5.29,5.29,0,0,1,2.43,2.9h-11c-1.11,0-.81.07-2.28,1.54a28.85,28.85,0,0,0-2.46,2.52h13.76c.9-.17,3.9-3.28,4.54-4,3.39-3.85.81-7-3.76-8.55-2.65-.88-6-1-9.45-1,1.31-2,1.75-3.47,3.7-3.47,2.51,0,6.84,2.49,8.68,3.47a30,30,0,0,0,3.09-3.16c.35-.34.82-.63,1-1.12a15.79,15.79,0,0,1-2.12-1.13l-1.08-.54c-.26-.12-.31-.12-.57-.23L175,170c-.24-.13-.15-.08-.27-.19h47v-3.47h-74v3.47Z"/><path class="cls-1" d="M206.16,184.54v-7.06c0-.26.08-.34.34-.34h7.4a1.83,1.83,0,0,1,.93.23,72.51,72.51,0,0,1,.12,7.75h-7.52c-.44,0-.2.07-.55,0-.12,0-.39,0-.61,0a1.66,1.66,0,0,1-.11-.58Zm-4.63.35c0,2.68,1.25,5,4.16,5h14V177.14c0-2-1.37-4.63-3.93-4.63H201.53v12.38Z"/><path class="cls-1" d="M181.29,189.87h5.09V178.06c1.91-.44,1.63-.81,4.16-.81,3.72,0,4.28,2.83,4.28,6,.67-.45,1.49-1.51,2.19-2.09l.06-.06.19-.15c.39-.34,1.84-1.67,1.84-2v-.81c0-2.63-1.84-5.21-4.39-5.21s-2.75.22-5.17,1.43a14.66,14.66,0,0,0-3.16,2.27v-4.16h-5.09v17.36Z"/><path class="cls-1" d="M150.29,172.86v17h5.09V172.51h-4.74c-.27,0-.35.08-.35.35Z"/><path class="cls-1" d="M91.63,102.44,95.25,95l12.6,2.89-3.59,7.27s-12.66-2.8-12.63-2.73Z"/><path class="cls-1" d="M107.09,106l3.62-7.44,12.59,2.9-3.58,7.27s-12.66-2.8-12.63-2.73Z"/><path class="cls-1" d="M148.05,115.39l3.62-7.43,12.59,2.9-3.58,7.26s-12.66-2.79-12.63-2.73Z"/><path class="cls-1" d="M163.51,119l3.62-7.44,12.6,2.9-3.59,7.27s-12.66-2.8-12.63-2.73Z"/></svg>